<svg width="11" height="8" viewBox="0 0 11 8" fill="none" xmlns="http://www.w3.org/2000/svg">
<path d="M3.24963 6.45047L1.20796 4.40881C1.15457 4.35477 1.09099 4.31186 1.02089 4.28258C0.9508 4.25329 0.875591 4.23822 0.799626 4.23822C0.723662 4.23822 0.648452 4.25329 0.578359 4.28258C0.508265 4.31186 0.444681 4.35477 0.391293 4.40881C0.337253 4.46219 0.294348 4.52578 0.265065 4.59587C0.235782 4.66597 0.220703 4.74117 0.220703 4.81714C0.220703 4.8931 0.235782 4.96831 0.265065 5.03841C0.294348 5.1085 0.337253 5.17208 0.391293 5.22547L2.83546 7.66964C3.06296 7.89714 3.43046 7.89714 3.65796 7.66964L9.84129 1.49214C9.89533 1.43875 9.93824 1.37517 9.96752 1.30507C9.99681 1.23498 10.0119 1.15977 10.0119 1.08381C10.0119 1.00784 9.99681 0.932632 9.96752 0.862538C9.93824 0.792445 9.89533 0.728861 9.84129 0.675472C9.78791 0.621433 9.72432 0.578527 9.65423 0.549244C9.58413 0.519961 9.50893 0.504883 9.43296 0.504883C9.357 0.504883 9.28179 0.519961 9.21169 0.549244C9.1416 0.578527 9.07802 0.621433 9.02463 0.675472L3.24963 6.45047Z" fill="white"/>
</svg>
