<svg width="18" height="13" viewBox="0 0 18 13" fill="none" xmlns="http://www.w3.org/2000/svg">
<path d="M6.00006 10.2003L2.50006 6.70025C2.40853 6.60761 2.29953 6.53406 2.17937 6.48386C2.05921 6.43366 1.93028 6.40781 1.80006 6.40781C1.66983 6.40781 1.5409 6.43366 1.42074 6.48386C1.30058 6.53406 1.19158 6.60761 1.10006 6.70025C1.00742 6.79177 0.933865 6.90078 0.883666 7.02094C0.833466 7.1411 0.807617 7.27003 0.807617 7.40025C0.807617 7.53048 0.833466 7.65941 0.883666 7.77957C0.933865 7.89973 1.00742 8.00873 1.10006 8.10025L5.29006 12.2903C5.68006 12.6803 6.31006 12.6803 6.70006 12.2903L17.3001 1.70025C17.3927 1.60873 17.4662 1.49973 17.5164 1.37957C17.5666 1.25941 17.5925 1.13048 17.5925 1.00025C17.5925 0.870027 17.5666 0.741097 17.5164 0.620936C17.4662 0.500776 17.3927 0.391775 17.3001 0.300252C17.2085 0.207612 17.0995 0.13406 16.9794 0.0838609C16.8592 0.0336613 16.7303 0.0078125 16.6001 0.0078125C16.4698 0.0078125 16.3409 0.0336613 16.2207 0.0838609C16.1006 0.13406 15.9916 0.207612 15.9001 0.300252L6.00006 10.2003Z" fill="white"/>
</svg>
