<svg width="52" height="67" viewBox="0 0 52 67" fill="none" xmlns="http://www.w3.org/2000/svg">
<path d="M0.821656 63.1153C0.665395 63.343 0.723289 63.6542 0.950967 63.8105L4.66118 66.3569C4.88886 66.5132 5.20011 66.4553 5.35637 66.2276C5.51263 65.9999 5.45473 65.6887 5.22706 65.5324L1.92909 63.2689L4.19258 59.971C4.34884 59.7433 4.29094 59.432 4.06327 59.2758C3.83559 59.1195 3.52434 59.1774 3.36808 59.4051L0.821656 63.1153ZM50.081 0.560221C48.6916 20.9056 45.6618 34.7446 38.4191 44.3658C31.1931 53.9647 19.7016 59.4545 1.14247 62.9067L1.32534 63.8898C19.9773 60.4204 31.7688 54.8627 39.218 44.9672C46.6505 35.0939 49.6881 20.9918 51.0787 0.628354L50.081 0.560221Z" fill="white"/>
</svg>
