<svg width="38" height="38" viewBox="0 0 38 38" fill="none" xmlns="http://www.w3.org/2000/svg">
<path d="M14.2498 3.7998C14.5018 3.7998 14.7434 3.89989 14.9216 4.07805C15.0997 4.25621 15.1998 4.49785 15.1998 4.7498V8.5498C15.1998 8.80176 15.0997 9.0434 14.9216 9.22156C14.7434 9.39972 14.5018 9.4998 14.2498 9.4998C13.9978 9.4998 13.7562 9.39972 13.5781 9.22156C13.3999 9.0434 13.2998 8.80176 13.2998 8.5498V4.7498C13.2998 4.49785 13.3999 4.25621 13.5781 4.07805C13.7562 3.89989 13.9978 3.7998 14.2498 3.7998ZM6.8588 6.8588C6.94705 6.77033 7.05189 6.70014 7.1673 6.65225C7.28272 6.60436 7.40645 6.57971 7.5314 6.57971C7.65636 6.57971 7.78009 6.60436 7.89551 6.65225C8.01092 6.70014 8.11576 6.77033 8.204 6.8588L10.8906 9.54731C10.9813 9.63494 11.0537 9.73977 11.1035 9.85567C11.1533 9.97157 11.1795 10.0962 11.1806 10.2224C11.1817 10.3485 11.1577 10.4736 11.1099 10.5904C11.0621 10.7071 10.9916 10.8132 10.9024 10.9024C10.8132 10.9916 10.7071 11.0621 10.5904 11.1099C10.4736 11.1577 10.3485 11.1817 10.2224 11.1806C10.0962 11.1795 9.97157 11.1533 9.85567 11.1035C9.73977 11.0537 9.63494 10.9813 9.54731 10.8906L6.8607 8.204C6.68261 8.02585 6.58256 7.78426 6.58256 7.53235C6.58256 7.28045 6.68261 7.03886 6.8607 6.8607L6.8588 6.8588ZM21.6408 6.8588C21.7293 6.94705 21.7995 7.05189 21.8474 7.1673C21.8953 7.28272 21.9199 7.40645 21.9199 7.5314C21.9199 7.65636 21.8953 7.78009 21.8474 7.89551C21.7995 8.01092 21.7293 8.11576 21.6408 8.204L18.9504 10.8906C18.8628 10.9813 18.7579 11.0537 18.642 11.1035C18.5261 11.1533 18.4015 11.1795 18.2753 11.1806C18.1492 11.1817 18.0241 11.1577 17.9073 11.1099C17.7906 11.0621 17.6845 10.9916 17.5953 10.9024C17.5061 10.8132 17.4356 10.7071 17.3878 10.5904C17.3401 10.4736 17.316 10.3485 17.3171 10.2224C17.3182 10.0962 17.3444 9.97157 17.3942 9.85567C17.444 9.73977 17.5164 9.63494 17.6071 9.54731L20.2937 6.8607C20.4719 6.68261 20.7134 6.58256 20.9654 6.58256C21.2173 6.58256 21.4589 6.68261 21.637 6.8607L21.6408 6.8588ZM3.7998 14.2498C3.7998 13.9978 3.89989 13.7562 4.07805 13.5781C4.25621 13.3999 4.49785 13.2998 4.7498 13.2998H8.5498C8.80176 13.2998 9.0434 13.3999 9.22156 13.5781C9.39972 13.7562 9.4998 13.9978 9.4998 14.2498C9.4998 14.5018 9.39972 14.7434 9.22156 14.9216C9.0434 15.0997 8.80176 15.1998 8.5498 15.1998H4.7498C4.49785 15.1998 4.25621 15.0997 4.07805 14.9216C3.89989 14.7434 3.7998 14.5018 3.7998 14.2498ZM16.4158 13.8698C16.1385 13.6389 15.8012 13.4916 15.4433 13.4454C15.0854 13.3991 14.7218 13.4558 14.3949 13.6086C14.068 13.7615 13.7914 14.0043 13.5975 14.3087C13.4036 14.613 13.3003 14.9662 13.2998 15.3271V32.619C13.2998 34.3746 15.4753 35.1916 16.6305 33.8711L20.4799 29.4707C20.7477 29.1654 21.0775 28.9208 21.4475 28.7534C21.8175 28.5859 22.2189 28.4995 22.625 28.4998H28.7259C30.5024 28.4998 31.308 26.2768 29.9419 25.1406L16.4158 13.8679V13.8698ZM15.1998 32.6228V15.3271L28.7259 26.5998H22.625C21.9478 26.5997 21.2783 26.7445 20.6616 27.0243C20.0449 27.3042 19.4951 27.7127 19.0492 28.2224L15.1998 32.6209V32.6228Z" fill="white"/>
</svg>
