<svg width="18" height="18" viewBox="0 0 18 18" fill="none" xmlns="http://www.w3.org/2000/svg">
<circle cx="9" cy="9" r="9" fill="#E82929"/>
<path d="M9.39204 8.99962L11.6948 6.69684C11.7403 6.6437 11.7641 6.57535 11.7614 6.50544C11.7587 6.43553 11.7297 6.36921 11.6803 6.31974C11.6308 6.27027 11.5645 6.24129 11.4946 6.23859C11.4246 6.23589 11.3563 6.25967 11.3032 6.30517L9.00037 8.60795L6.69759 6.3024C6.64529 6.25009 6.57434 6.2207 6.50037 6.2207C6.4264 6.2207 6.35546 6.25009 6.30315 6.3024C6.25084 6.3547 6.22146 6.42564 6.22146 6.49962C6.22146 6.57359 6.25084 6.64453 6.30315 6.69684L8.60871 8.99962L6.30315 11.3024C6.27407 11.3273 6.25046 11.3579 6.23378 11.3924C6.21711 11.4269 6.20774 11.4644 6.20626 11.5027C6.20478 11.5409 6.21123 11.5791 6.2252 11.6147C6.23916 11.6504 6.26034 11.6827 6.28741 11.7098C6.31448 11.7369 6.34686 11.7581 6.3825 11.772C6.41815 11.786 6.4563 11.7924 6.49455 11.791C6.53281 11.7895 6.57035 11.7801 6.60481 11.7634C6.63927 11.7468 6.66991 11.7231 6.69482 11.6941L9.00037 9.39128L11.3032 11.6941C11.3563 11.7396 11.4246 11.7633 11.4946 11.7606C11.5645 11.7579 11.6308 11.729 11.6803 11.6795C11.7297 11.63 11.7587 11.5637 11.7614 11.4938C11.7641 11.4239 11.7403 11.3555 11.6948 11.3024L9.39204 8.99962Z" fill="white"/>
</svg>
