<svg width="39" height="24" viewBox="0 0 39 24" fill="none" xmlns="http://www.w3.org/2000/svg">
<path d="M16.2938 0.22439C10.6059 1.18509 5.19239 4.53992 1.05985 9.69416C-0.358326 11.4478 -0.358326 11.7071 1.09035 13.5065C10.6974 25.3856 25.1536 26.4378 35.6146 16.0226C37.2615 14.3757 38.8169 12.4848 38.9542 11.9511C39.1067 11.3411 38.9084 10.9141 37.902 9.66367C34.3642 5.30239 29.6522 2.0238 25.1384 0.758114C22.424 0.0109012 18.8405 -0.217837 16.2938 0.22439ZM20.8686 3.50298C23.7965 3.96045 26.4651 6.33933 27.38 9.32818C27.7308 10.4566 27.7155 12.7898 27.3648 13.8725C26.4346 16.6631 24.2844 18.7522 21.5548 19.5299C20.4874 19.8349 18.2457 19.7892 17.2088 19.4537C15.8364 18.9962 14.6927 18.31 13.7777 17.4103C9.75191 13.415 10.8194 6.75106 15.9126 4.25019C17.59 3.42673 18.9929 3.21324 20.8686 3.50298Z" fill="white"/>
<path d="M18.0626 7.40682C16.9799 7.75755 15.638 9.11473 15.3177 10.2127C15.0128 11.2496 15.0128 11.9206 15.3177 12.9575C15.6532 14.1012 16.9799 15.4279 18.1236 15.7634C19.8773 16.2819 21.2649 15.9464 22.5611 14.6502C23.5066 13.6895 23.9183 12.744 23.9183 11.4936C23.9183 9.95344 22.7746 8.23028 21.3412 7.57456C20.4415 7.17808 19.0081 7.10183 18.0626 7.40682Z" fill="white"/>
</svg>
