<svg width="18" height="18" viewBox="0 0 18 18" fill="none" xmlns="http://www.w3.org/2000/svg">
<circle cx="9" cy="9" r="9" fill="#00C22B"/>
<path d="M7.75043 10.7498L6.2921 9.29145C6.25396 9.25285 6.20855 9.2222 6.15848 9.20128C6.10841 9.18037 6.05469 9.1696 6.00043 9.1696C5.94617 9.1696 5.89245 9.18037 5.84238 9.20128C5.79232 9.2222 5.7469 9.25285 5.70876 9.29145C5.67016 9.32958 5.63952 9.375 5.6186 9.42507C5.59768 9.47513 5.58691 9.52885 5.58691 9.58311C5.58691 9.63737 5.59768 9.69109 5.6186 9.74116C5.63952 9.79123 5.67016 9.83665 5.70876 9.87478L7.4546 11.6206C7.6171 11.7831 7.8796 11.7831 8.0421 11.6206L12.4588 7.20811C12.4974 7.16998 12.528 7.12456 12.5489 7.07449C12.5698 7.02443 12.5806 6.97071 12.5806 6.91645C12.5806 6.86219 12.5698 6.80846 12.5489 6.7584C12.528 6.70833 12.4974 6.66291 12.4588 6.62478C12.4206 6.58618 12.3752 6.55553 12.3251 6.53462C12.2751 6.5137 12.2214 6.50293 12.1671 6.50293C12.1128 6.50293 12.0591 6.5137 12.009 6.53462C11.959 6.55553 11.9136 6.58618 11.8754 6.62478L7.75043 10.7498Z" fill="white"/>
</svg>
