<svg width="70" height="70" viewBox="0 0 70 70" fill="none" xmlns="http://www.w3.org/2000/svg">
<path d="M12.9103 30.2373C13.2933 32.9455 15.0167 42.2737 15.2902 43.1217C15.7006 44.4348 16.7401 45.1187 18.2446 45.1187C19.3115 45.1187 19.6671 44.9819 20.2963 44.3254C22.2385 42.3011 22.2659 37.7327 20.3784 33.9303C19.2841 31.7419 16.3298 29.5808 13.7583 29.0884L12.7188 28.8969L12.9103 30.2373Z" fill="#C7C7C7"/>
<path d="M18.272 0.392477C12.3906 1.59612 6.91946 5.28911 3.69152 10.2404C-0.548583 16.8058 -0.986271 22.5504 1.6125 37.0488C3.30854 46.5138 3.74623 49.605 4.01978 54.2828C4.29334 58.9058 4.53954 59.918 5.98938 62.6535C7.05624 64.6505 10.0106 67.4955 12.0076 68.4529C17.6428 71.1885 23.6063 70.2584 28.1473 65.9636C31.7035 62.6262 33.1807 58.304 32.5516 53.1338C32.278 50.918 32.3054 50.1247 32.6063 48.6475C33.2901 45.4469 35.0956 42.3558 38.3236 38.8543C41.5241 35.3801 43.3023 32.2616 44.4238 28.1583C45.1898 25.4227 45.1351 19.6781 44.3144 16.8331C42.7278 11.3073 39.3631 6.68424 34.6306 3.62042C29.8981 0.529255 23.6884 -0.701742 18.272 0.392477ZM26.8069 9.00945C29.8434 9.93954 33.0713 12.4562 34.74 15.1644C37.8585 20.2252 37.4208 27.0367 33.6458 31.6598L32.6883 32.8634L31.2658 31.4409L29.816 30.0185L30.7187 28.8148C32.1412 26.9546 32.6336 25.368 32.6336 22.5504C32.6336 20.4714 32.4968 19.8422 31.895 18.5292C30.9376 16.4775 29.3236 14.7541 27.2446 13.6325C25.5759 12.7298 25.4118 12.7024 22.5121 12.7024C19.6124 12.7024 19.4483 12.7298 17.7796 13.6325C14.4149 15.4653 12.582 18.4197 12.3085 22.3316C12.1991 24.1097 12.2538 24.6021 12.5547 24.6841C12.7735 24.7662 13.6763 24.9303 14.579 25.1218C17.1778 25.6142 19.5303 26.8999 21.7188 29.0884C24.7826 32.1522 26.123 35.6537 25.8495 39.7844C25.5485 44.3801 24.4817 46.7327 21.9923 48.2372C19.4209 49.8512 15.6459 49.4956 13.348 47.4165C11.8708 46.0761 11.269 44.4074 10.2295 38.6901C8.20517 27.6385 7.76748 22.824 8.53344 19.596C9.70972 14.6447 13.2386 10.7055 17.9984 9.09152C20.4057 8.27086 24.2902 8.2435 26.8069 9.00945Z" fill="#C7C7C7"/>
<path d="M58.4298 12.7298C54.0803 14.8909 50.5515 16.7237 50.5515 16.8058C50.5515 17.2161 52.2475 20.2252 52.4663 20.2252C52.8493 20.2252 68.6061 12.3195 68.6061 12.1553C68.6061 11.6629 66.91 8.7359 66.6091 8.76325C66.445 8.76325 62.752 10.5414 58.4298 12.7298Z" fill="#C7C7C7"/>
<path d="M49.2931 33.1917C49.211 33.3832 49.1837 34.3406 49.2384 35.2981L49.3205 37.0488L59.6608 37.1309L69.9738 37.1856V32.8087H59.7155C51.3174 32.8087 49.4025 32.8634 49.2931 33.1917Z" fill="#C7C7C7"/>
<path d="M51.3721 51.4104C50.9344 52.3132 50.5515 53.1065 50.5515 53.1886C50.5515 53.3527 66.3082 61.2584 66.6912 61.2584C66.91 61.2584 68.6061 58.2493 68.6061 57.839C68.6061 57.6749 52.8493 49.7691 52.4663 49.7691C52.3296 49.7691 51.8372 50.5077 51.3721 51.4104Z" fill="#C7C7C7"/>
</svg>
