<svg width="70" height="42" viewBox="0 0 70 42" fill="none" xmlns="http://www.w3.org/2000/svg">
<path d="M29.2453 0.402752C19.0362 2.12709 9.31968 8.14858 1.9023 17.3998C-0.64315 20.5474 -0.64315 21.0127 1.95704 24.2424C19.2278 45.5639 45.1476 47.4525 63.9237 28.7585C66.8797 25.8025 69.6714 22.4086 69.9178 21.4506C70.1915 20.3558 69.8357 19.5894 68.0292 17.345C61.6793 9.5171 53.2218 3.63246 45.1202 1.36072C40.2482 0.0195663 33.8162 -0.39099 29.2453 0.402752ZM39.1808 6.69795C43.8338 8.12121 47.6656 11.9804 49.1436 16.7429C49.7458 18.6314 49.7458 22.9286 49.171 24.7898C47.6656 29.607 43.8338 33.4662 39.0439 34.9442C37.128 35.5464 32.8582 35.5464 30.9423 34.9442C23.5523 32.6725 19.0362 25.2004 20.5963 17.8377C21.7458 12.3363 26.3441 7.65591 31.7908 6.39688C33.7615 5.95895 37.2101 6.0958 39.1808 6.69795Z" fill="white"/>
<path d="M32.4203 13.2942C30.477 13.9237 28.0684 16.3597 27.4936 18.3304C26.9462 20.1916 26.9462 21.3959 27.4936 23.2571C28.0958 25.3098 30.477 27.6911 32.5298 28.2932C35.7048 29.2238 38.1681 28.6217 40.4946 26.2952C41.7536 25.0361 42.1642 24.3792 42.52 23.1202C43.998 18.084 40.6041 13.2669 35.4311 12.9658C34.391 12.911 33.2414 13.0205 32.4203 13.2942Z" fill="white"/>
</svg>
