<svg width="70" height="75" viewBox="0 0 70 75" fill="none" xmlns="http://www.w3.org/2000/svg">
<path d="M0 4.43333H3.73333C5.775 4.43333 7.93333 4.57917 8.575 4.75417C10.0625 5.1625 12.3083 7.40833 12.775 8.98333C13.0375 9.85833 13.125 13.5042 13.125 21.8458V33.5417L14.8167 32.8417C21.8167 30.0125 29.7208 30.5375 35.9917 34.1833L37.975 35.35H48.2125L48.0667 32.9292C47.8333 28.5833 45.5583 25.1125 41.7083 23.275L39.8125 22.3708L17.5292 22.1958L17.3542 8.37083L16.45 6.475C15.2833 4.05417 13.475 2.24583 11.0833 1.10833C9.24583 0.233333 9.04167 0.204167 4.60833 0.116667L0 0V4.43333Z" fill="white"/>
<path d="M19.8333 35.8167C18.7833 36.0208 16.7125 36.8083 15.225 37.5375C8.6625 40.8042 4.375 47.6875 4.375 55.0375C4.375 62.3583 8.69167 69.3 15.225 72.5083C21.175 75.4542 26.95 75.4542 32.9 72.5083C36.7208 70.6417 39.6667 67.6958 41.5333 63.875C44.4792 57.925 44.4792 52.15 41.5333 46.2C37.625 38.2667 28.5833 33.9208 19.8333 35.8167ZM28.4375 45.0917C30.7125 46.1125 32.9875 48.3583 34.0375 50.6333C34.7375 52.1792 34.8542 52.7625 34.8542 55.0375C34.8542 57.2833 34.7375 57.925 34.0375 59.4125C32.9583 61.7167 30.7125 63.9625 28.4667 64.9833C26.95 65.6833 26.3083 65.8 24.0625 65.8292C21.7875 65.8292 21.2042 65.7125 19.6875 65.0125C17.3833 63.9333 15.1375 61.6875 14.0875 59.4417C13.3875 57.8958 13.2708 57.3125 13.2708 55.0375C13.2708 52.7625 13.3875 52.1792 14.0875 50.6625C15.4583 47.7458 17.9667 45.5583 21.1458 44.4792C23.0125 43.8667 26.3667 44.1292 28.4375 45.0917Z" fill="white"/>
<path d="M21.7292 48.9125C19.425 49.7292 17.5 52.5292 17.5 55.0375C17.5 58.5083 20.5917 61.6 24.0625 61.6C26.6875 61.6 29.6333 59.4417 30.3042 57.0792C31.0333 54.4542 30.5083 52.3542 28.6125 50.4875C26.6875 48.5333 24.2958 48.0083 21.7292 48.9125Z" fill="white"/>
<path d="M43.2833 40.6292C45.2083 42.9333 47.0167 47.075 47.6583 50.6625L48.0083 52.7042L52.5 52.8792V61.8625L51.6833 62.3C49.7 63.3208 48.125 65.9167 48.125 68.1625C48.125 71.6333 51.2167 74.725 54.6875 74.725C56.9333 74.725 59.5292 73.15 60.55 71.1667L60.9875 70.35H70V65.975H65.4792C61.1042 65.975 60.9583 65.9458 60.6375 65.3042C60.1417 64.3708 58.5958 62.7667 57.6917 62.3L56.875 61.8625V53.6375C56.875 48.5333 56.7583 44.975 56.5542 44.2458C56.1167 42.7 53.9 40.4833 52.3542 40.0458C51.7125 39.8708 49.2333 39.725 46.8708 39.725H42.525L43.2833 40.6292Z" fill="white"/>
</svg>
