<svg width="258" height="108" viewBox="0 0 258 108" fill="none" xmlns="http://www.w3.org/2000/svg">
<path d="M66.9375 33.25C66.9375 30.6875 66.1354 28.8229 64.5312 27.6562C62.9271 26.4896 60.3229 25.9062 56.7188 25.9062H50.25V41.75H57.0938C60.4688 41.75 62.9479 41.0833 64.5312 39.75C66.1354 38.4167 66.9375 36.25 66.9375 33.25ZM70.0938 53.0625C70.0938 50.125 69.1146 47.9792 67.1562 46.625C65.1979 45.25 62.0625 44.5625 57.75 44.5625H50.25V62.1875C53.125 62.3125 56.1875 62.375 59.4375 62.375C63 62.375 65.6667 61.625 67.4375 60.125C69.2083 58.6042 70.0938 56.25 70.0938 53.0625ZM38.8438 65V63.3438L44.2188 62.5V25.5625L38.8438 24.75V23.0938H58C63.3125 23.0938 67.1979 23.8854 69.6562 25.4688C72.1146 27.0312 73.3438 29.5208 73.3438 32.9375C73.3438 35.3958 72.5833 37.4896 71.0625 39.2188C69.5625 40.9479 67.4479 42.1042 64.7188 42.6875C68.4896 43.0833 71.4062 44.1875 73.4688 46C75.5312 47.7917 76.5625 50.1042 76.5625 52.9375C76.5625 56.9583 75.1667 60.0104 72.375 62.0938C69.6042 64.1562 65.5521 65.1875 60.2188 65.1875L46.8438 65H38.8438Z" fill="#4E4E4E"/>
<path d="M187.844 65V63.3438L194.5 62.5V25.7812H192.906C187.635 25.7812 184.031 25.9896 182.094 26.4062L181.25 32.9375H179.156V23.0938H216.031V32.9375H213.906L213.062 26.4062C212.438 26.2604 211.073 26.1354 208.969 26.0312C206.865 25.9062 204.562 25.8438 202.062 25.8438H200.531V62.5L207.188 63.3438V65H187.844Z" fill="#4E4E4E"/>
<path d="M4.635 93.35H5.52L9.945 104H8.835L7.455 100.67H2.67L1.305 104H0.18L4.635 93.35ZM7.215 99.845L5.07 94.58L2.895 99.845H7.215ZM12.6417 105.815V103.085H12.7767C13.0767 103.085 13.3467 102.955 13.5867 102.695C13.8267 102.435 14.0217 101.965 14.1717 101.285C14.3317 100.595 14.4267 99.62 14.4567 98.36L14.5317 96.185H19.6167V103.085H20.6667V105.815H19.7517V104H13.5417V105.815H12.6417ZM14.3217 103.085H18.5967V97.1H15.4467L15.4017 98.45C15.3517 99.85 15.2367 100.91 15.0567 101.63C14.8767 102.34 14.6317 102.825 14.3217 103.085ZM24.4479 104V96.185H28.3479C28.7879 96.185 29.1579 96.28 29.4579 96.47C29.7579 96.65 29.9829 96.89 30.1329 97.19C30.2929 97.48 30.3729 97.785 30.3729 98.105C30.3729 98.525 30.2679 98.905 30.0579 99.245C29.8579 99.575 29.5729 99.825 29.2029 99.995C29.6529 100.115 30.0179 100.35 30.2979 100.7C30.5779 101.05 30.7179 101.46 30.7179 101.93C30.7179 102.56 30.4929 103.065 30.0429 103.445C29.6029 103.815 29.0379 104 28.3479 104H24.4479ZM25.4229 99.71H28.0779C28.4679 99.71 28.7829 99.565 29.0229 99.275C29.2729 98.975 29.3979 98.64 29.3979 98.27C29.3979 97.91 29.2779 97.595 29.0379 97.325C28.8079 97.055 28.5079 96.92 28.1379 96.92H25.4229V99.71ZM25.4229 103.265H28.3179C28.7179 103.265 29.0529 103.12 29.3229 102.83C29.5929 102.53 29.7279 102.2 29.7279 101.84C29.7279 101.45 29.5979 101.115 29.3379 100.835C29.0779 100.555 28.7579 100.415 28.3779 100.415H25.4229V103.265ZM38.0702 104.15C37.3202 104.15 36.6502 103.965 36.0602 103.595C35.4802 103.225 35.0252 102.735 34.6952 102.125C34.3652 101.505 34.2002 100.835 34.2002 100.115C34.2002 99.385 34.3652 98.715 34.6952 98.105C35.0352 97.485 35.4952 96.99 36.0752 96.62C36.6652 96.24 37.3302 96.05 38.0702 96.05C38.8202 96.05 39.4852 96.24 40.0652 96.62C40.6552 96.99 41.1152 97.485 41.4452 98.105C41.7852 98.715 41.9552 99.385 41.9552 100.115C41.9552 100.835 41.7902 101.505 41.4602 102.125C41.1302 102.735 40.6702 103.225 40.0802 103.595C39.5002 103.965 38.8302 104.15 38.0702 104.15ZM35.2352 100.13C35.2352 100.71 35.3602 101.24 35.6102 101.72C35.8702 102.19 36.2152 102.565 36.6452 102.845C37.0752 103.115 37.5502 103.25 38.0702 103.25C38.5902 103.25 39.0652 103.11 39.4952 102.83C39.9252 102.55 40.2702 102.17 40.5302 101.69C40.7902 101.21 40.9202 100.68 40.9202 100.1C40.9202 99.52 40.7902 98.99 40.5302 98.51C40.2702 98.03 39.9252 97.65 39.4952 97.37C39.0652 97.09 38.5902 96.95 38.0702 96.95C37.5602 96.95 37.0902 97.095 36.6602 97.385C36.2302 97.665 35.8852 98.045 35.6252 98.525C35.3652 99.005 35.2352 99.54 35.2352 100.13ZM45.8961 104V96.185H46.9161V99.53H48.0861L50.7111 96.185H51.8811L48.8961 99.98L52.2561 104H51.0561L48.0861 100.475H46.9161V104H45.8961ZM55.2948 101.75C55.2948 101.27 55.4348 100.855 55.7148 100.505C55.9948 100.145 56.3798 99.865 56.8698 99.665C57.3698 99.465 57.9448 99.365 58.5948 99.365C58.9748 99.365 59.3698 99.4 59.7798 99.47C60.1898 99.53 60.5548 99.615 60.8748 99.725V99.065C60.8748 98.405 60.6798 97.88 60.2898 97.49C59.8998 97.1 59.3598 96.905 58.6698 96.905C58.2598 96.905 57.8498 96.985 57.4398 97.145C57.0298 97.295 56.6048 97.52 56.1648 97.82L55.7748 97.1C56.2848 96.75 56.7848 96.49 57.2748 96.32C57.7648 96.14 58.2648 96.05 58.7748 96.05C59.7348 96.05 60.4948 96.325 61.0548 96.875C61.6148 97.425 61.8948 98.185 61.8948 99.155V102.77C61.8948 103.04 62.0198 103.18 62.2698 103.19V104C62.0498 104.03 61.8948 104.04 61.8048 104.03C61.5548 104.02 61.3648 103.94 61.2348 103.79C61.1048 103.64 61.0348 103.48 61.0248 103.31L61.0098 102.74C60.6598 103.19 60.2048 103.54 59.6448 103.79C59.0848 104.03 58.5148 104.15 57.9348 104.15C57.4248 104.15 56.9698 104.045 56.5698 103.835C56.1698 103.615 55.8548 103.325 55.6248 102.965C55.4048 102.595 55.2948 102.19 55.2948 101.75ZM60.5298 102.35C60.7598 102.08 60.8748 101.83 60.8748 101.6V100.46C60.1848 100.19 59.4648 100.055 58.7148 100.055C57.9848 100.055 57.3948 100.2 56.9448 100.49C56.4948 100.78 56.2698 101.175 56.2698 101.675C56.2698 102.105 56.4348 102.495 56.7648 102.845C57.1048 103.195 57.5748 103.37 58.1748 103.37C58.6648 103.37 59.1198 103.275 59.5398 103.085C59.9698 102.895 60.2998 102.65 60.5298 102.35ZM68.1668 104V97.1H65.3768V96.185H71.9768V97.1H69.1868V104H68.1668ZM89.9085 101.255C89.9085 101.785 89.7735 102.26 89.5035 102.68C89.2335 103.09 88.8685 103.415 88.4085 103.655C87.9585 103.885 87.4635 104 86.9235 104H81.8985V93.35H87.0285C87.5285 93.35 87.9585 93.485 88.3185 93.755C88.6785 94.015 88.9585 94.355 89.1585 94.775C89.3585 95.185 89.4585 95.615 89.4585 96.065C89.4585 96.595 89.3235 97.085 89.0535 97.535C88.7835 97.985 88.4085 98.32 87.9285 98.54C88.5285 98.72 89.0085 99.055 89.3685 99.545C89.7285 100.035 89.9085 100.605 89.9085 101.255ZM82.9485 94.265V98.195H86.6085C86.9585 98.195 87.2685 98.105 87.5385 97.925C87.8185 97.735 88.0335 97.495 88.1835 97.205C88.3435 96.905 88.4235 96.58 88.4235 96.23C88.4235 95.87 88.3485 95.54 88.1985 95.24C88.0485 94.94 87.8435 94.705 87.5835 94.535C87.3235 94.355 87.0285 94.265 86.6985 94.265H82.9485ZM88.8585 101.075C88.8585 100.725 88.7785 100.395 88.6185 100.085C88.4585 99.775 88.2385 99.525 87.9585 99.335C87.6885 99.145 87.3785 99.05 87.0285 99.05H82.9485V103.085H86.9235C87.2835 103.085 87.6085 102.99 87.8985 102.8C88.1885 102.61 88.4185 102.365 88.5885 102.065C88.7685 101.755 88.8585 101.425 88.8585 101.075ZM93.1787 104.045V103.115C93.4387 103.115 93.6737 103.045 93.8837 102.905C94.1037 102.765 94.2937 102.52 94.4537 102.17C94.6237 101.82 94.7587 101.335 94.8587 100.715C94.9587 100.095 95.0237 99.31 95.0537 98.36L95.1437 96.185H100.214V104H99.1937V97.1H96.0437L96.0137 98.45C95.9637 99.9 95.8287 101.03 95.6087 101.84C95.3887 102.65 95.0737 103.22 94.6637 103.55C94.2637 103.87 93.7687 104.035 93.1787 104.045ZM104.089 101.75C104.089 101.27 104.229 100.855 104.509 100.505C104.789 100.145 105.174 99.865 105.664 99.665C106.164 99.465 106.739 99.365 107.389 99.365C107.769 99.365 108.164 99.4 108.574 99.47C108.984 99.53 109.349 99.615 109.669 99.725V99.065C109.669 98.405 109.474 97.88 109.084 97.49C108.694 97.1 108.154 96.905 107.464 96.905C107.054 96.905 106.644 96.985 106.234 97.145C105.824 97.295 105.399 97.52 104.959 97.82L104.569 97.1C105.079 96.75 105.579 96.49 106.069 96.32C106.559 96.14 107.059 96.05 107.569 96.05C108.529 96.05 109.289 96.325 109.849 96.875C110.409 97.425 110.689 98.185 110.689 99.155V102.77C110.689 103.04 110.814 103.18 111.064 103.19V104C110.844 104.03 110.689 104.04 110.599 104.03C110.349 104.02 110.159 103.94 110.029 103.79C109.899 103.64 109.829 103.48 109.819 103.31L109.804 102.74C109.454 103.19 108.999 103.54 108.439 103.79C107.879 104.03 107.309 104.15 106.729 104.15C106.219 104.15 105.764 104.045 105.364 103.835C104.964 103.615 104.649 103.325 104.419 102.965C104.199 102.595 104.089 102.19 104.089 101.75ZM109.324 102.35C109.554 102.08 109.669 101.83 109.669 101.6V100.46C108.979 100.19 108.259 100.055 107.509 100.055C106.779 100.055 106.189 100.2 105.739 100.49C105.289 100.78 105.064 101.175 105.064 101.675C105.064 102.105 105.229 102.495 105.559 102.845C105.899 103.195 106.369 103.37 106.969 103.37C107.459 103.37 107.914 103.275 108.334 103.085C108.764 102.895 109.094 102.65 109.324 102.35ZM114.273 105.815V103.085H114.408C114.708 103.085 114.978 102.955 115.218 102.695C115.458 102.435 115.653 101.965 115.803 101.285C115.963 100.595 116.058 99.62 116.088 98.36L116.163 96.185H121.248V103.085H122.298V105.815H121.383V104H115.173V105.815H114.273ZM115.953 103.085H120.228V97.1H117.078L117.033 98.45C116.983 99.85 116.868 100.91 116.688 101.63C116.508 102.34 116.263 102.825 115.953 103.085ZM126.079 104V96.2H127.099V102.62L131.854 96.185H132.769V104H131.749V97.685L127.069 104H126.079ZM137.235 104V96.185H138.285L141.39 101.57L144.51 96.185H145.515V104H144.54V97.715L141.72 102.605H141.06L138.21 97.715V104H137.235ZM150.003 104V96.2H151.023V102.62L155.778 96.185H156.693V104H155.673V97.685L150.993 104H150.003ZM165.164 104.15C164.514 104.15 163.929 103.98 163.409 103.64C162.899 103.3 162.494 102.88 162.194 102.38V107.195H161.174V96.185H162.089V97.7C162.399 97.21 162.809 96.815 163.319 96.515C163.839 96.205 164.399 96.05 164.999 96.05C165.539 96.05 166.034 96.165 166.484 96.395C166.934 96.615 167.324 96.915 167.654 97.295C167.994 97.675 168.254 98.11 168.434 98.6C168.614 99.08 168.704 99.58 168.704 100.1C168.704 100.83 168.554 101.505 168.254 102.125C167.964 102.735 167.549 103.225 167.009 103.595C166.479 103.965 165.864 104.15 165.164 104.15ZM164.879 103.25C165.449 103.25 165.939 103.1 166.349 102.8C166.769 102.49 167.094 102.095 167.324 101.615C167.554 101.135 167.669 100.63 167.669 100.1C167.669 99.54 167.539 99.02 167.279 98.54C167.019 98.06 166.669 97.675 166.229 97.385C165.799 97.095 165.309 96.95 164.759 96.95C164.419 96.95 164.059 97.04 163.679 97.22C163.309 97.39 162.979 97.625 162.689 97.925C162.409 98.215 162.244 98.535 162.194 98.885V101.285C162.424 101.835 162.784 102.3 163.274 102.68C163.764 103.06 164.299 103.25 164.879 103.25ZM186.085 94.28H182.29V104H181.24V94.28H177.445V93.35H186.085V94.28ZM187.538 101.75C187.538 101.27 187.678 100.855 187.958 100.505C188.238 100.145 188.623 99.865 189.113 99.665C189.613 99.465 190.188 99.365 190.838 99.365C191.218 99.365 191.613 99.4 192.023 99.47C192.433 99.53 192.798 99.615 193.118 99.725V99.065C193.118 98.405 192.923 97.88 192.533 97.49C192.143 97.1 191.603 96.905 190.913 96.905C190.503 96.905 190.093 96.985 189.683 97.145C189.273 97.295 188.848 97.52 188.408 97.82L188.018 97.1C188.528 96.75 189.028 96.49 189.518 96.32C190.008 96.14 190.508 96.05 191.018 96.05C191.978 96.05 192.738 96.325 193.298 96.875C193.858 97.425 194.138 98.185 194.138 99.155V102.77C194.138 103.04 194.263 103.18 194.513 103.19V104C194.293 104.03 194.138 104.04 194.048 104.03C193.798 104.02 193.608 103.94 193.478 103.79C193.348 103.64 193.278 103.48 193.268 103.31L193.253 102.74C192.903 103.19 192.448 103.54 191.888 103.79C191.328 104.03 190.758 104.15 190.178 104.15C189.668 104.15 189.213 104.045 188.813 103.835C188.413 103.615 188.098 103.325 187.868 102.965C187.648 102.595 187.538 102.19 187.538 101.75ZM192.773 102.35C193.003 102.08 193.118 101.83 193.118 101.6V100.46C192.428 100.19 191.708 100.055 190.958 100.055C190.228 100.055 189.638 100.2 189.188 100.49C188.738 100.78 188.513 101.175 188.513 101.675C188.513 102.105 188.678 102.495 189.008 102.845C189.348 103.195 189.818 103.37 190.418 103.37C190.908 103.37 191.363 103.275 191.783 103.085C192.213 102.895 192.543 102.65 192.773 102.35ZM200.41 104V97.1H197.62V96.185H204.22V97.1H201.43V104H200.41ZM207.184 101.75C207.184 101.27 207.324 100.855 207.604 100.505C207.884 100.145 208.269 99.865 208.759 99.665C209.259 99.465 209.834 99.365 210.484 99.365C210.864 99.365 211.259 99.4 211.669 99.47C212.079 99.53 212.444 99.615 212.764 99.725V99.065C212.764 98.405 212.569 97.88 212.179 97.49C211.789 97.1 211.249 96.905 210.559 96.905C210.149 96.905 209.739 96.985 209.329 97.145C208.919 97.295 208.494 97.52 208.054 97.82L207.664 97.1C208.174 96.75 208.674 96.49 209.164 96.32C209.654 96.14 210.154 96.05 210.664 96.05C211.624 96.05 212.384 96.325 212.944 96.875C213.504 97.425 213.784 98.185 213.784 99.155V102.77C213.784 103.04 213.909 103.18 214.159 103.19V104C213.939 104.03 213.784 104.04 213.694 104.03C213.444 104.02 213.254 103.94 213.124 103.79C212.994 103.64 212.924 103.48 212.914 103.31L212.899 102.74C212.549 103.19 212.094 103.54 211.534 103.79C210.974 104.03 210.404 104.15 209.824 104.15C209.314 104.15 208.859 104.045 208.459 103.835C208.059 103.615 207.744 103.325 207.514 102.965C207.294 102.595 207.184 102.19 207.184 101.75ZM212.419 102.35C212.649 102.08 212.764 101.83 212.764 101.6V100.46C212.074 100.19 211.354 100.055 210.604 100.055C209.874 100.055 209.284 100.2 208.834 100.49C208.384 100.78 208.159 101.175 208.159 101.675C208.159 102.105 208.324 102.495 208.654 102.845C208.994 103.195 209.464 103.37 210.064 103.37C210.554 103.37 211.009 103.275 211.429 103.085C211.859 102.895 212.189 102.65 212.419 102.35ZM218.859 107.27C218.529 107.27 218.179 107.165 217.809 106.955L218.184 106.235C218.394 106.375 218.599 106.445 218.799 106.445C219.299 106.445 219.764 105.935 220.194 104.915L220.584 103.94L217.104 96.185H218.184L221.049 102.95L223.689 96.185H224.709L220.989 105.23C220.689 105.94 220.364 106.455 220.014 106.775C219.664 107.105 219.279 107.27 218.859 107.27ZM232.374 104.15C231.724 104.15 231.139 103.98 230.619 103.64C230.109 103.3 229.704 102.88 229.404 102.38V107.195H228.384V96.185H229.299V97.7C229.609 97.21 230.019 96.815 230.529 96.515C231.049 96.205 231.609 96.05 232.209 96.05C232.749 96.05 233.244 96.165 233.694 96.395C234.144 96.615 234.534 96.915 234.864 97.295C235.204 97.675 235.464 98.11 235.644 98.6C235.824 99.08 235.914 99.58 235.914 100.1C235.914 100.83 235.764 101.505 235.464 102.125C235.174 102.735 234.759 103.225 234.219 103.595C233.689 103.965 233.074 104.15 232.374 104.15ZM232.089 103.25C232.659 103.25 233.149 103.1 233.559 102.8C233.979 102.49 234.304 102.095 234.534 101.615C234.764 101.135 234.879 100.63 234.879 100.1C234.879 99.54 234.749 99.02 234.489 98.54C234.229 98.06 233.879 97.675 233.439 97.385C233.009 97.095 232.519 96.95 231.969 96.95C231.629 96.95 231.269 97.04 230.889 97.22C230.519 97.39 230.189 97.625 229.899 97.925C229.619 98.215 229.454 98.535 229.404 98.885V101.285C229.634 101.835 229.994 102.3 230.484 102.68C230.974 103.06 231.509 103.25 232.089 103.25ZM243.222 104.15C242.472 104.15 241.802 103.965 241.212 103.595C240.632 103.225 240.177 102.735 239.847 102.125C239.517 101.505 239.352 100.835 239.352 100.115C239.352 99.385 239.517 98.715 239.847 98.105C240.187 97.485 240.647 96.99 241.227 96.62C241.817 96.24 242.482 96.05 243.222 96.05C243.972 96.05 244.637 96.24 245.217 96.62C245.807 96.99 246.267 97.485 246.597 98.105C246.937 98.715 247.107 99.385 247.107 100.115C247.107 100.835 246.942 101.505 246.612 102.125C246.282 102.735 245.822 103.225 245.232 103.595C244.652 103.965 243.982 104.15 243.222 104.15ZM240.387 100.13C240.387 100.71 240.512 101.24 240.762 101.72C241.022 102.19 241.367 102.565 241.797 102.845C242.227 103.115 242.702 103.25 243.222 103.25C243.742 103.25 244.217 103.11 244.647 102.83C245.077 102.55 245.422 102.17 245.682 101.69C245.942 101.21 246.072 100.68 246.072 100.1C246.072 99.52 245.942 98.99 245.682 98.51C245.422 98.03 245.077 97.65 244.647 97.37C244.217 97.09 243.742 96.95 243.222 96.95C242.712 96.95 242.242 97.095 241.812 97.385C241.382 97.665 241.037 98.045 240.777 98.525C240.517 99.005 240.387 99.54 240.387 100.13ZM251.048 104V96.185H254.948C255.388 96.185 255.758 96.28 256.058 96.47C256.358 96.65 256.583 96.89 256.733 97.19C256.893 97.48 256.973 97.785 256.973 98.105C256.973 98.525 256.868 98.905 256.658 99.245C256.458 99.575 256.173 99.825 255.803 99.995C256.253 100.115 256.618 100.35 256.898 100.7C257.178 101.05 257.318 101.46 257.318 101.93C257.318 102.56 257.093 103.065 256.643 103.445C256.203 103.815 255.638 104 254.948 104H251.048ZM252.023 99.71H254.678C255.068 99.71 255.383 99.565 255.623 99.275C255.873 98.975 255.998 98.64 255.998 98.27C255.998 97.91 255.878 97.595 255.638 97.325C255.408 97.055 255.108 96.92 254.738 96.92H252.023V99.71ZM252.023 103.265H254.918C255.318 103.265 255.653 103.12 255.923 102.83C256.193 102.53 256.328 102.2 256.328 101.84C256.328 101.45 256.198 101.115 255.938 100.835C255.678 100.555 255.358 100.415 254.978 100.415H252.023V103.265Z" fill="#4E4E4E"/>
<path fill-rule="evenodd" clip-rule="evenodd" d="M117.464 44.1547C107.75 34.0063 100.007 22.9011 97.0008 12.594C95.5263 15.5458 95.4897 18.9883 96.7382 22.6653C100.57 30.3518 108.581 38.684 116.68 45.8035C121.463 49.1407 126.971 52.1314 133.799 54.7894C134.719 55.1475 136.099 59.2905 136.65 60.2522L144.816 54.4259C145.78 53.738 145.568 50.7982 143.729 50.2167L138.028 48.4147C137.027 48.414 136.384 48.889 136.095 49.4076C136.194 48.3068 136.287 47.2794 136.724 46.5164C137.162 45.7531 137.945 45.2537 139.426 45.209L143.754 45.1922L145.233 44.5691L149.813 44.5488C152.494 44.7129 154.147 45.3608 155.071 48.115C157.77 56.165 157.131 64.0858 155.091 70C159.736 66.2423 162.708 60.4976 162.708 54.059C162.708 42.7409 153.529 33.5622 142.211 33.5622C133.193 33.5622 125.534 39.3918 122.794 47.4857C112.878 33.8665 105.36 18.1497 102.371 0C99.7892 2.79748 98.3082 7.20885 98.5959 11.3022C100.311 20.6813 108.666 33.3348 117.464 44.1547ZM108.935 40.0553C103.123 34.8911 98.4226 29.3229 95.6186 23.5497C92.2426 31.2974 103.229 40.3004 115.336 47.5198L108.935 40.0553Z" fill="#C6A141"/>
<line x1="29" y1="79.75" x2="229" y2="79.75" stroke="black" stroke-width="0.5"/>
</svg>
